<mxfile host="app.diagrams.net" agent="Mozilla/5.0 (Windows NT 10.0; Win64; x64) AppleWebKit/537.36 (KHTML, like Gecko) Chrome/136.0.0.0 Safari/537.36" version="26.2.14">
  <diagram name="Page-1" id="THSSDWueWtSCtX9Tx5Xp">
    <mxGraphModel dx="4522" dy="1005" grid="1" gridSize="10" guides="1" tooltips="1" connect="1" arrows="1" fold="1" page="1" pageScale="1" pageWidth="850" pageHeight="1100" math="0" shadow="0">
      <root>
        <mxCell id="0" />
        <mxCell id="1" parent="0" />
        <mxCell id="NUN0Sn_SLwlIywBVIQcX-73" value="" style="rounded=1;whiteSpace=wrap;html=1;" vertex="1" parent="1">
          <mxGeometry x="-1310" y="150" width="590" height="1000" as="geometry" />
        </mxCell>
        <mxCell id="NUN0Sn_SLwlIywBVIQcX-69" value="" style="rounded=1;whiteSpace=wrap;html=1;" vertex="1" parent="1">
          <mxGeometry x="-230" y="120" width="500" height="1100" as="geometry" />
        </mxCell>
        <mxCell id="NUN0Sn_SLwlIywBVIQcX-66" value="" style="rounded=1;whiteSpace=wrap;html=1;" vertex="1" parent="1">
          <mxGeometry x="-1270" y="440" width="470" height="460" as="geometry" />
        </mxCell>
        <mxCell id="tpF9TqGOwknZqEcBmdI6-47" value="" style="rounded=1;whiteSpace=wrap;html=1;" parent="1" vertex="1">
          <mxGeometry x="-180" y="420" width="420" height="420" as="geometry" />
        </mxCell>
        <mxCell id="tpF9TqGOwknZqEcBmdI6-3" value="" style="edgeStyle=orthogonalEdgeStyle;rounded=0;orthogonalLoop=1;jettySize=auto;html=1;" parent="1" source="tpF9TqGOwknZqEcBmdI6-6" target="tpF9TqGOwknZqEcBmdI6-2" edge="1">
          <mxGeometry relative="1" as="geometry" />
        </mxCell>
        <mxCell id="tpF9TqGOwknZqEcBmdI6-1" value="Embedding" style="rounded=1;whiteSpace=wrap;html=1;" parent="1" vertex="1">
          <mxGeometry x="-89.37" y="210" width="240" height="60" as="geometry" />
        </mxCell>
        <mxCell id="tpF9TqGOwknZqEcBmdI6-10" value="" style="edgeStyle=orthogonalEdgeStyle;rounded=0;orthogonalLoop=1;jettySize=auto;html=1;" parent="1" source="tpF9TqGOwknZqEcBmdI6-2" target="tpF9TqGOwknZqEcBmdI6-9" edge="1">
          <mxGeometry relative="1" as="geometry" />
        </mxCell>
        <mxCell id="tpF9TqGOwknZqEcBmdI6-2" value="Qwen2RMSNorm" style="whiteSpace=wrap;html=1;rounded=1;" parent="1" vertex="1">
          <mxGeometry x="-130" y="450" width="320" height="70" as="geometry" />
        </mxCell>
        <mxCell id="tpF9TqGOwknZqEcBmdI6-7" value="" style="edgeStyle=orthogonalEdgeStyle;rounded=0;orthogonalLoop=1;jettySize=auto;html=1;" parent="1" source="tpF9TqGOwknZqEcBmdI6-1" target="tpF9TqGOwknZqEcBmdI6-6" edge="1">
          <mxGeometry relative="1" as="geometry">
            <mxPoint x="30" y="200" as="sourcePoint" />
            <mxPoint x="30" y="390" as="targetPoint" />
          </mxGeometry>
        </mxCell>
        <mxCell id="tpF9TqGOwknZqEcBmdI6-6" value="Qwen2VLRotaryEmbedding" style="rounded=1;whiteSpace=wrap;html=1;" parent="1" vertex="1">
          <mxGeometry x="-90" y="340" width="240" height="60" as="geometry" />
        </mxCell>
        <mxCell id="tpF9TqGOwknZqEcBmdI6-29" style="edgeStyle=orthogonalEdgeStyle;rounded=0;orthogonalLoop=1;jettySize=auto;html=1;entryX=0.5;entryY=0;entryDx=0;entryDy=0;entryPerimeter=0;" parent="1" source="tpF9TqGOwknZqEcBmdI6-9" target="tpF9TqGOwknZqEcBmdI6-43" edge="1">
          <mxGeometry relative="1" as="geometry">
            <mxPoint x="30" y="680" as="targetPoint" />
          </mxGeometry>
        </mxCell>
        <mxCell id="tpF9TqGOwknZqEcBmdI6-46" style="edgeStyle=orthogonalEdgeStyle;rounded=0;orthogonalLoop=1;jettySize=auto;html=1;entryX=0;entryY=0.5;entryDx=0;entryDy=0;entryPerimeter=0;" parent="1" source="tpF9TqGOwknZqEcBmdI6-9" target="tpF9TqGOwknZqEcBmdI6-43" edge="1">
          <mxGeometry relative="1" as="geometry">
            <mxPoint x="-220" y="710" as="targetPoint" />
            <Array as="points">
              <mxPoint x="-160" y="595" />
              <mxPoint x="-160" y="690" />
            </Array>
          </mxGeometry>
        </mxCell>
        <mxCell id="tpF9TqGOwknZqEcBmdI6-9" value="Qwen2VLAttention" style="whiteSpace=wrap;html=1;rounded=1;" parent="1" vertex="1">
          <mxGeometry x="-135" y="565" width="330" height="60" as="geometry" />
        </mxCell>
        <mxCell id="tpF9TqGOwknZqEcBmdI6-31" value="" style="edgeStyle=orthogonalEdgeStyle;rounded=0;orthogonalLoop=1;jettySize=auto;html=1;exitX=0.5;exitY=1;exitDx=0;exitDy=0;" parent="1" source="tpF9TqGOwknZqEcBmdI6-28" target="tpF9TqGOwknZqEcBmdI6-30" edge="1">
          <mxGeometry relative="1" as="geometry">
            <mxPoint x="30" y="820" as="sourcePoint" />
          </mxGeometry>
        </mxCell>
        <mxCell id="tpF9TqGOwknZqEcBmdI6-28" value="Qwen2MLP" style="rounded=1;whiteSpace=wrap;html=1;" parent="1" vertex="1">
          <mxGeometry x="-136.24" y="750" width="335" height="60" as="geometry" />
        </mxCell>
        <mxCell id="tpF9TqGOwknZqEcBmdI6-33" value="" style="edgeStyle=orthogonalEdgeStyle;rounded=0;orthogonalLoop=1;jettySize=auto;html=1;" parent="1" source="tpF9TqGOwknZqEcBmdI6-30" target="tpF9TqGOwknZqEcBmdI6-32" edge="1">
          <mxGeometry relative="1" as="geometry" />
        </mxCell>
        <mxCell id="tpF9TqGOwknZqEcBmdI6-30" value="Qwen2RMSNorm" style="whiteSpace=wrap;html=1;rounded=1;" parent="1" vertex="1">
          <mxGeometry x="-139.37" y="870" width="340" height="60" as="geometry" />
        </mxCell>
        <mxCell id="tpF9TqGOwknZqEcBmdI6-35" value="" style="edgeStyle=orthogonalEdgeStyle;rounded=0;orthogonalLoop=1;jettySize=auto;html=1;entryX=0.5;entryY=0;entryDx=0;entryDy=0;" parent="1" source="tpF9TqGOwknZqEcBmdI6-32" target="tpF9TqGOwknZqEcBmdI6-36" edge="1">
          <mxGeometry relative="1" as="geometry">
            <mxPoint x="30" y="1170" as="targetPoint" />
          </mxGeometry>
        </mxCell>
        <mxCell id="tpF9TqGOwknZqEcBmdI6-32" value="Linear" style="whiteSpace=wrap;html=1;rounded=1;" parent="1" vertex="1">
          <mxGeometry x="-136.25" y="980" width="333.75" height="60" as="geometry" />
        </mxCell>
        <mxCell id="tpF9TqGOwknZqEcBmdI6-36" value="Output" style="whiteSpace=wrap;html=1;rounded=1;" parent="1" vertex="1">
          <mxGeometry x="-136.25" y="1090" width="333.75" height="60" as="geometry" />
        </mxCell>
        <mxCell id="tpF9TqGOwknZqEcBmdI6-39" value="" style="group" parent="1" vertex="1" connectable="0">
          <mxGeometry x="775" y="565" width="500" height="470.6600000000001" as="geometry" />
        </mxCell>
        <mxCell id="tpF9TqGOwknZqEcBmdI6-15" value="" style="edgeStyle=orthogonalEdgeStyle;rounded=0;orthogonalLoop=1;jettySize=auto;html=1;entryX=0.5;entryY=0;entryDx=0;entryDy=0;" parent="tpF9TqGOwknZqEcBmdI6-39" target="tpF9TqGOwknZqEcBmdI6-14" edge="1">
          <mxGeometry relative="1" as="geometry">
            <mxPoint x="250" y="60" as="sourcePoint" />
            <mxPoint x="60" y="240" as="targetPoint" />
            <Array as="points">
              <mxPoint x="240" y="60" />
              <mxPoint x="240" y="150" />
              <mxPoint x="60" y="150" />
            </Array>
          </mxGeometry>
        </mxCell>
        <mxCell id="tpF9TqGOwknZqEcBmdI6-16" style="edgeStyle=orthogonalEdgeStyle;rounded=0;orthogonalLoop=1;jettySize=auto;html=1;entryX=0.5;entryY=0;entryDx=0;entryDy=0;" parent="tpF9TqGOwknZqEcBmdI6-39" target="tpF9TqGOwknZqEcBmdI6-18" edge="1">
          <mxGeometry relative="1" as="geometry">
            <mxPoint x="245" y="240" as="targetPoint" />
            <mxPoint x="245.02857142857147" y="60" as="sourcePoint" />
          </mxGeometry>
        </mxCell>
        <mxCell id="tpF9TqGOwknZqEcBmdI6-20" style="edgeStyle=orthogonalEdgeStyle;rounded=0;orthogonalLoop=1;jettySize=auto;html=1;entryX=0.5;entryY=0;entryDx=0;entryDy=0;" parent="tpF9TqGOwknZqEcBmdI6-39" target="tpF9TqGOwknZqEcBmdI6-19" edge="1">
          <mxGeometry relative="1" as="geometry">
            <mxPoint x="245.02857142857147" y="60" as="sourcePoint" />
            <Array as="points">
              <mxPoint x="245" y="150" />
              <mxPoint x="310" y="150" />
            </Array>
          </mxGeometry>
        </mxCell>
        <mxCell id="tpF9TqGOwknZqEcBmdI6-22" style="edgeStyle=orthogonalEdgeStyle;rounded=0;orthogonalLoop=1;jettySize=auto;html=1;" parent="tpF9TqGOwknZqEcBmdI6-39" target="tpF9TqGOwknZqEcBmdI6-21" edge="1">
          <mxGeometry relative="1" as="geometry">
            <mxPoint x="245.02857142857147" y="60" as="sourcePoint" />
            <Array as="points">
              <mxPoint x="245" y="150" />
              <mxPoint x="440" y="150" />
            </Array>
          </mxGeometry>
        </mxCell>
        <mxCell id="tpF9TqGOwknZqEcBmdI6-24" style="edgeStyle=orthogonalEdgeStyle;rounded=0;orthogonalLoop=1;jettySize=auto;html=1;exitX=0.416;exitY=0.989;exitDx=0;exitDy=0;exitPerimeter=0;" parent="tpF9TqGOwknZqEcBmdI6-39" edge="1">
          <mxGeometry relative="1" as="geometry">
            <mxPoint x="261.1" y="470" as="targetPoint" />
            <mxPoint x="50.020000000000095" y="300.0000000000001" as="sourcePoint" />
            <Array as="points">
              <mxPoint x="50.10000000000002" y="385.65999999999997" />
              <mxPoint x="261.1" y="385.65999999999997" />
              <mxPoint x="261.1" y="470.6600000000001" />
            </Array>
          </mxGeometry>
        </mxCell>
        <mxCell id="tpF9TqGOwknZqEcBmdI6-14" value="ParallelAdapterMLP" style="whiteSpace=wrap;html=1;rounded=1;" parent="tpF9TqGOwknZqEcBmdI6-39" vertex="1">
          <mxGeometry y="240" width="120" height="60" as="geometry" />
        </mxCell>
        <mxCell id="tpF9TqGOwknZqEcBmdI6-25" style="edgeStyle=orthogonalEdgeStyle;rounded=0;orthogonalLoop=1;jettySize=auto;html=1;" parent="tpF9TqGOwknZqEcBmdI6-39" source="tpF9TqGOwknZqEcBmdI6-18" edge="1">
          <mxGeometry relative="1" as="geometry">
            <mxPoint x="260" y="470" as="targetPoint" />
            <Array as="points">
              <mxPoint x="180" y="380" />
              <mxPoint x="260" y="380" />
            </Array>
          </mxGeometry>
        </mxCell>
        <mxCell id="tpF9TqGOwknZqEcBmdI6-18" value="ParallelAdapterMLP" style="rounded=1;whiteSpace=wrap;html=1;" parent="tpF9TqGOwknZqEcBmdI6-39" vertex="1">
          <mxGeometry x="125" y="240" width="120" height="60" as="geometry" />
        </mxCell>
        <mxCell id="tpF9TqGOwknZqEcBmdI6-26" style="edgeStyle=orthogonalEdgeStyle;rounded=0;orthogonalLoop=1;jettySize=auto;html=1;" parent="tpF9TqGOwknZqEcBmdI6-39" source="tpF9TqGOwknZqEcBmdI6-19" edge="1">
          <mxGeometry relative="1" as="geometry">
            <mxPoint x="260" y="470" as="targetPoint" />
            <Array as="points">
              <mxPoint x="310" y="385" />
              <mxPoint x="261" y="385" />
              <mxPoint x="261" y="470" />
              <mxPoint x="260" y="470" />
            </Array>
          </mxGeometry>
        </mxCell>
        <mxCell id="tpF9TqGOwknZqEcBmdI6-19" value="ParallelAdapterMLP" style="whiteSpace=wrap;html=1;rounded=1;" parent="tpF9TqGOwknZqEcBmdI6-39" vertex="1">
          <mxGeometry x="250" y="240" width="120" height="60" as="geometry" />
        </mxCell>
        <mxCell id="tpF9TqGOwknZqEcBmdI6-27" style="edgeStyle=orthogonalEdgeStyle;rounded=0;orthogonalLoop=1;jettySize=auto;html=1;" parent="tpF9TqGOwknZqEcBmdI6-39" source="tpF9TqGOwknZqEcBmdI6-21" edge="1">
          <mxGeometry relative="1" as="geometry">
            <mxPoint x="260" y="470" as="targetPoint" />
            <Array as="points">
              <mxPoint x="440" y="380" />
              <mxPoint x="261" y="380" />
              <mxPoint x="261" y="470" />
            </Array>
          </mxGeometry>
        </mxCell>
        <mxCell id="tpF9TqGOwknZqEcBmdI6-21" value="ParallelAdapterMLP" style="whiteSpace=wrap;html=1;rounded=1;" parent="tpF9TqGOwknZqEcBmdI6-39" vertex="1">
          <mxGeometry x="380" y="240" width="120" height="60" as="geometry" />
        </mxCell>
        <mxCell id="tpF9TqGOwknZqEcBmdI6-23" value="Router" style="whiteSpace=wrap;html=1;rounded=1;" parent="tpF9TqGOwknZqEcBmdI6-39" vertex="1">
          <mxGeometry x="180" width="120" height="60" as="geometry" />
        </mxCell>
        <mxCell id="tpF9TqGOwknZqEcBmdI6-44" style="edgeStyle=orthogonalEdgeStyle;rounded=0;orthogonalLoop=1;jettySize=auto;html=1;" parent="1" source="tpF9TqGOwknZqEcBmdI6-43" target="tpF9TqGOwknZqEcBmdI6-28" edge="1">
          <mxGeometry relative="1" as="geometry" />
        </mxCell>
        <mxCell id="tpF9TqGOwknZqEcBmdI6-43" value="" style="verticalLabelPosition=bottom;verticalAlign=top;html=1;shape=mxgraph.flowchart.summing_function;" parent="1" vertex="1">
          <mxGeometry x="9.98" y="670" width="40" height="40" as="geometry" />
        </mxCell>
        <mxCell id="tpF9TqGOwknZqEcBmdI6-48" value="&lt;div style=&quot;background-color: rgb(31, 31, 31); line-height: 19px; color: rgb(204, 204, 204);&quot;&gt;&lt;br&gt;&lt;/div&gt;" style="text;html=1;align=center;verticalAlign=middle;resizable=0;points=[];autosize=1;strokeColor=none;fillColor=none;" parent="1" vertex="1">
          <mxGeometry x="-420" y="598" width="20" height="30" as="geometry" />
        </mxCell>
        <mxCell id="tpF9TqGOwknZqEcBmdI6-49" value="Qwen2VLDecoderLayer" style="text;html=1;align=center;verticalAlign=middle;resizable=0;points=[];autosize=1;strokeColor=none;fillColor=none;rotation=-90;" parent="1" vertex="1">
          <mxGeometry x="-280" y="615" width="150" height="30" as="geometry" />
        </mxCell>
        <mxCell id="tpF9TqGOwknZqEcBmdI6-52" value="" style="group" parent="1" vertex="1" connectable="0">
          <mxGeometry x="410" y="660" width="230" height="230" as="geometry" />
        </mxCell>
        <mxCell id="tpF9TqGOwknZqEcBmdI6-50" value="" style="rounded=1;whiteSpace=wrap;html=1;" parent="tpF9TqGOwknZqEcBmdI6-52" vertex="1">
          <mxGeometry width="230" height="230" as="geometry" />
        </mxCell>
        <mxCell id="tpF9TqGOwknZqEcBmdI6-13" value="" style="edgeStyle=orthogonalEdgeStyle;rounded=0;orthogonalLoop=1;jettySize=auto;html=1;" parent="tpF9TqGOwknZqEcBmdI6-52" source="tpF9TqGOwknZqEcBmdI6-8" target="tpF9TqGOwknZqEcBmdI6-12" edge="1">
          <mxGeometry relative="1" as="geometry" />
        </mxCell>
        <mxCell id="tpF9TqGOwknZqEcBmdI6-8" value="Linear" style="rounded=1;whiteSpace=wrap;html=1;" parent="tpF9TqGOwknZqEcBmdI6-52" vertex="1">
          <mxGeometry x="55" y="40" width="120" height="60" as="geometry" />
        </mxCell>
        <mxCell id="tpF9TqGOwknZqEcBmdI6-12" value="MoEGateRouter" style="whiteSpace=wrap;html=1;rounded=1;" parent="tpF9TqGOwknZqEcBmdI6-52" vertex="1">
          <mxGeometry x="55" y="140" width="120" height="60" as="geometry" />
        </mxCell>
        <mxCell id="tpF9TqGOwknZqEcBmdI6-40" value="" style="endArrow=classic;html=1;rounded=0;exitX=0.5;exitY=1;exitDx=0;exitDy=0;" parent="tpF9TqGOwknZqEcBmdI6-52" source="tpF9TqGOwknZqEcBmdI6-12" edge="1">
          <mxGeometry width="50" height="50" relative="1" as="geometry">
            <mxPoint x="130" y="430" as="sourcePoint" />
            <mxPoint x="115" y="230" as="targetPoint" />
          </mxGeometry>
        </mxCell>
        <mxCell id="tpF9TqGOwknZqEcBmdI6-41" value="" style="endArrow=classic;html=1;rounded=0;entryX=0.5;entryY=0;entryDx=0;entryDy=0;" parent="tpF9TqGOwknZqEcBmdI6-52" target="tpF9TqGOwknZqEcBmdI6-8" edge="1">
          <mxGeometry width="50" height="50" relative="1" as="geometry">
            <mxPoint x="115" as="sourcePoint" />
            <mxPoint x="114" y="30" as="targetPoint" />
          </mxGeometry>
        </mxCell>
        <mxCell id="tpF9TqGOwknZqEcBmdI6-54" value="" style="strokeWidth=2;html=1;shape=mxgraph.flowchart.annotation_2;align=left;labelPosition=right;pointerEvents=1;" parent="1" vertex="1">
          <mxGeometry x="200" y="675" width="210" height="210" as="geometry" />
        </mxCell>
        <mxCell id="tpF9TqGOwknZqEcBmdI6-56" value="" style="strokeWidth=2;html=1;shape=mxgraph.flowchart.annotation_2;align=left;labelPosition=right;pointerEvents=1;" parent="1" vertex="1">
          <mxGeometry x="600" y="770" width="160" height="120" as="geometry" />
        </mxCell>
        <mxCell id="NUN0Sn_SLwlIywBVIQcX-5" value="" style="edgeStyle=orthogonalEdgeStyle;rounded=0;orthogonalLoop=1;jettySize=auto;html=1;" edge="1" parent="1" source="NUN0Sn_SLwlIywBVIQcX-1" target="NUN0Sn_SLwlIywBVIQcX-4">
          <mxGeometry relative="1" as="geometry" />
        </mxCell>
        <mxCell id="NUN0Sn_SLwlIywBVIQcX-1" value="PatchEmbed" style="rounded=1;whiteSpace=wrap;html=1;" vertex="1" parent="1">
          <mxGeometry x="-1203.75" y="210" width="337.5" height="60" as="geometry" />
        </mxCell>
        <mxCell id="NUN0Sn_SLwlIywBVIQcX-10" style="edgeStyle=orthogonalEdgeStyle;rounded=0;orthogonalLoop=1;jettySize=auto;html=1;" edge="1" parent="1" source="NUN0Sn_SLwlIywBVIQcX-4" target="NUN0Sn_SLwlIywBVIQcX-8">
          <mxGeometry relative="1" as="geometry" />
        </mxCell>
        <mxCell id="NUN0Sn_SLwlIywBVIQcX-4" value="VisionRotaryEmbedding" style="whiteSpace=wrap;html=1;rounded=1;" vertex="1" parent="1">
          <mxGeometry x="-1202.5" y="350" width="335" height="60" as="geometry" />
        </mxCell>
        <mxCell id="NUN0Sn_SLwlIywBVIQcX-6" style="edgeStyle=orthogonalEdgeStyle;rounded=0;orthogonalLoop=1;jettySize=auto;html=1;entryX=0.5;entryY=0;entryDx=0;entryDy=0;entryPerimeter=0;" edge="1" parent="1" source="NUN0Sn_SLwlIywBVIQcX-8" target="NUN0Sn_SLwlIywBVIQcX-9">
          <mxGeometry relative="1" as="geometry">
            <mxPoint x="-1030" y="595" as="targetPoint" />
          </mxGeometry>
        </mxCell>
        <mxCell id="NUN0Sn_SLwlIywBVIQcX-7" style="edgeStyle=orthogonalEdgeStyle;rounded=0;orthogonalLoop=1;jettySize=auto;html=1;entryX=0;entryY=0.5;entryDx=0;entryDy=0;entryPerimeter=0;" edge="1" parent="1" source="NUN0Sn_SLwlIywBVIQcX-8" target="NUN0Sn_SLwlIywBVIQcX-9">
          <mxGeometry relative="1" as="geometry">
            <mxPoint x="-1280" y="625" as="targetPoint" />
            <Array as="points">
              <mxPoint x="-1250" y="510" />
              <mxPoint x="-1250" y="605" />
            </Array>
          </mxGeometry>
        </mxCell>
        <mxCell id="NUN0Sn_SLwlIywBVIQcX-8" value="Qwen2VLAttention" style="whiteSpace=wrap;html=1;rounded=1;" vertex="1" parent="1">
          <mxGeometry x="-1200" y="480" width="330" height="60" as="geometry" />
        </mxCell>
        <mxCell id="NUN0Sn_SLwlIywBVIQcX-16" value="" style="edgeStyle=orthogonalEdgeStyle;rounded=0;orthogonalLoop=1;jettySize=auto;html=1;entryX=0.5;entryY=0;entryDx=0;entryDy=0;" edge="1" parent="1" source="NUN0Sn_SLwlIywBVIQcX-9" target="NUN0Sn_SLwlIywBVIQcX-15">
          <mxGeometry relative="1" as="geometry">
            <mxPoint x="-840" y="680" as="targetPoint" />
          </mxGeometry>
        </mxCell>
        <mxCell id="NUN0Sn_SLwlIywBVIQcX-9" value="" style="verticalLabelPosition=bottom;verticalAlign=top;html=1;shape=mxgraph.flowchart.summing_function;" vertex="1" parent="1">
          <mxGeometry x="-1055" y="585" width="40" height="40" as="geometry" />
        </mxCell>
        <mxCell id="NUN0Sn_SLwlIywBVIQcX-53" style="edgeStyle=orthogonalEdgeStyle;rounded=0;orthogonalLoop=1;jettySize=auto;html=1;entryX=0.5;entryY=0;entryDx=0;entryDy=0;" edge="1" parent="1" source="NUN0Sn_SLwlIywBVIQcX-15" target="NUN0Sn_SLwlIywBVIQcX-52">
          <mxGeometry relative="1" as="geometry" />
        </mxCell>
        <mxCell id="NUN0Sn_SLwlIywBVIQcX-15" value="LayerNorm" style="rounded=1;whiteSpace=wrap;html=1;verticalAlign=top;" vertex="1" parent="1">
          <mxGeometry x="-1206.25" y="665" width="342.5" height="45" as="geometry" />
        </mxCell>
        <mxCell id="NUN0Sn_SLwlIywBVIQcX-29" value="" style="group" vertex="1" connectable="0" parent="1">
          <mxGeometry x="-2140" y="649.97" width="527.5" height="470.6600000000001" as="geometry" />
        </mxCell>
        <mxCell id="NUN0Sn_SLwlIywBVIQcX-34" style="edgeStyle=orthogonalEdgeStyle;rounded=0;orthogonalLoop=1;jettySize=auto;html=1;exitX=0.5;exitY=1;exitDx=0;exitDy=0;" edge="1" parent="NUN0Sn_SLwlIywBVIQcX-29" source="NUN0Sn_SLwlIywBVIQcX-35">
          <mxGeometry relative="1" as="geometry">
            <mxPoint x="210" y="500" as="targetPoint" />
            <mxPoint x="50.020000000000095" y="300.0000000000001" as="sourcePoint" />
            <Array as="points">
              <mxPoint x="33" y="386" />
              <mxPoint x="210" y="386" />
              <mxPoint x="210" y="470" />
            </Array>
          </mxGeometry>
        </mxCell>
        <mxCell id="NUN0Sn_SLwlIywBVIQcX-36" style="edgeStyle=orthogonalEdgeStyle;rounded=0;orthogonalLoop=1;jettySize=auto;html=1;" edge="1" parent="NUN0Sn_SLwlIywBVIQcX-29" source="NUN0Sn_SLwlIywBVIQcX-37">
          <mxGeometry relative="1" as="geometry">
            <mxPoint x="210" y="500" as="targetPoint" />
            <Array as="points">
              <mxPoint x="180" y="380" />
              <mxPoint x="210" y="380" />
              <mxPoint x="210" y="470" />
            </Array>
          </mxGeometry>
        </mxCell>
        <mxCell id="NUN0Sn_SLwlIywBVIQcX-38" style="edgeStyle=orthogonalEdgeStyle;rounded=0;orthogonalLoop=1;jettySize=auto;html=1;" edge="1" parent="NUN0Sn_SLwlIywBVIQcX-29" source="NUN0Sn_SLwlIywBVIQcX-39">
          <mxGeometry relative="1" as="geometry">
            <mxPoint x="210" y="500" as="targetPoint" />
            <Array as="points">
              <mxPoint x="310" y="385" />
              <mxPoint x="210" y="385" />
              <mxPoint x="210" y="470" />
            </Array>
          </mxGeometry>
        </mxCell>
        <mxCell id="NUN0Sn_SLwlIywBVIQcX-30" value="" style="edgeStyle=orthogonalEdgeStyle;rounded=0;orthogonalLoop=1;jettySize=auto;html=1;entryX=0.5;entryY=0;entryDx=0;entryDy=0;" edge="1" parent="NUN0Sn_SLwlIywBVIQcX-29" target="NUN0Sn_SLwlIywBVIQcX-35">
          <mxGeometry relative="1" as="geometry">
            <mxPoint x="222.5" as="sourcePoint" />
            <mxPoint x="32.5" y="180" as="targetPoint" />
            <Array as="points">
              <mxPoint x="212.5" />
              <mxPoint x="212.5" y="90" />
              <mxPoint x="32.5" y="90" />
            </Array>
          </mxGeometry>
        </mxCell>
        <mxCell id="NUN0Sn_SLwlIywBVIQcX-31" style="edgeStyle=orthogonalEdgeStyle;rounded=0;orthogonalLoop=1;jettySize=auto;html=1;entryX=0.5;entryY=0;entryDx=0;entryDy=0;" edge="1" parent="NUN0Sn_SLwlIywBVIQcX-29" target="NUN0Sn_SLwlIywBVIQcX-37">
          <mxGeometry relative="1" as="geometry">
            <mxPoint x="217.5" y="180" as="targetPoint" />
            <mxPoint x="217.52857142857147" as="sourcePoint" />
          </mxGeometry>
        </mxCell>
        <mxCell id="NUN0Sn_SLwlIywBVIQcX-32" style="edgeStyle=orthogonalEdgeStyle;rounded=0;orthogonalLoop=1;jettySize=auto;html=1;entryX=0.5;entryY=0;entryDx=0;entryDy=0;" edge="1" parent="NUN0Sn_SLwlIywBVIQcX-29" target="NUN0Sn_SLwlIywBVIQcX-39">
          <mxGeometry relative="1" as="geometry">
            <mxPoint x="217.52857142857147" as="sourcePoint" />
            <Array as="points">
              <mxPoint x="217.5" y="90" />
              <mxPoint x="282.5" y="90" />
            </Array>
          </mxGeometry>
        </mxCell>
        <mxCell id="NUN0Sn_SLwlIywBVIQcX-33" style="edgeStyle=orthogonalEdgeStyle;rounded=0;orthogonalLoop=1;jettySize=auto;html=1;" edge="1" parent="NUN0Sn_SLwlIywBVIQcX-29" target="NUN0Sn_SLwlIywBVIQcX-41">
          <mxGeometry relative="1" as="geometry">
            <mxPoint x="217.52857142857147" as="sourcePoint" />
            <Array as="points">
              <mxPoint x="217.5" y="90" />
              <mxPoint x="412.5" y="90" />
            </Array>
          </mxGeometry>
        </mxCell>
        <mxCell id="NUN0Sn_SLwlIywBVIQcX-35" value="ParallelAdapterMLP" style="whiteSpace=wrap;html=1;rounded=1;" vertex="1" parent="NUN0Sn_SLwlIywBVIQcX-29">
          <mxGeometry x="-27.5" y="180" width="120" height="60" as="geometry" />
        </mxCell>
        <mxCell id="NUN0Sn_SLwlIywBVIQcX-37" value="ParallelAdapterMLP" style="rounded=1;whiteSpace=wrap;html=1;" vertex="1" parent="NUN0Sn_SLwlIywBVIQcX-29">
          <mxGeometry x="97.5" y="180" width="120" height="60" as="geometry" />
        </mxCell>
        <mxCell id="NUN0Sn_SLwlIywBVIQcX-39" value="ParallelAdapterMLP" style="whiteSpace=wrap;html=1;rounded=1;" vertex="1" parent="NUN0Sn_SLwlIywBVIQcX-29">
          <mxGeometry x="222.5" y="180" width="120" height="60" as="geometry" />
        </mxCell>
        <mxCell id="NUN0Sn_SLwlIywBVIQcX-41" value="ParallelAdapterMLP" style="whiteSpace=wrap;html=1;rounded=1;" vertex="1" parent="NUN0Sn_SLwlIywBVIQcX-29">
          <mxGeometry x="352.5" y="180" width="120" height="60" as="geometry" />
        </mxCell>
        <mxCell id="NUN0Sn_SLwlIywBVIQcX-42" value="Router" style="whiteSpace=wrap;html=1;rounded=1;" vertex="1" parent="NUN0Sn_SLwlIywBVIQcX-29">
          <mxGeometry x="152.5" y="-60" width="120" height="60" as="geometry" />
        </mxCell>
        <mxCell id="NUN0Sn_SLwlIywBVIQcX-59" value="X 8" style="text;html=1;align=center;verticalAlign=middle;resizable=0;points=[];autosize=1;strokeColor=none;fillColor=none;strokeWidth=4;fontSize=21;" vertex="1" parent="NUN0Sn_SLwlIywBVIQcX-29">
          <mxGeometry x="467.5" y="190" width="60" height="40" as="geometry" />
        </mxCell>
        <mxCell id="NUN0Sn_SLwlIywBVIQcX-63" value="" style="edgeStyle=orthogonalEdgeStyle;rounded=0;orthogonalLoop=1;jettySize=auto;html=1;entryX=0.509;entryY=-0.078;entryDx=0;entryDy=0;entryPerimeter=0;" edge="1" parent="1" source="NUN0Sn_SLwlIywBVIQcX-52" target="NUN0Sn_SLwlIywBVIQcX-64">
          <mxGeometry relative="1" as="geometry">
            <mxPoint x="-1035" y="850" as="targetPoint" />
            <Array as="points" />
          </mxGeometry>
        </mxCell>
        <mxCell id="NUN0Sn_SLwlIywBVIQcX-52" value="Vision&lt;span style=&quot;background-color: transparent; color: light-dark(rgb(0, 0, 0), rgb(255, 255, 255));&quot;&gt;MLP&lt;/span&gt;" style="rounded=1;whiteSpace=wrap;html=1;" vertex="1" parent="1">
          <mxGeometry x="-1202.5" y="770" width="335" height="60" as="geometry" />
        </mxCell>
        <mxCell id="NUN0Sn_SLwlIywBVIQcX-55" value="" style="group" vertex="1" connectable="0" parent="1">
          <mxGeometry x="-1540" y="690" width="340" height="230" as="geometry" />
        </mxCell>
        <mxCell id="NUN0Sn_SLwlIywBVIQcX-44" value="" style="group" vertex="1" connectable="0" parent="NUN0Sn_SLwlIywBVIQcX-55">
          <mxGeometry x="-60" y="-0.03" width="221.17171717171715" height="230" as="geometry" />
        </mxCell>
        <mxCell id="NUN0Sn_SLwlIywBVIQcX-45" value="" style="rounded=1;whiteSpace=wrap;html=1;" vertex="1" parent="NUN0Sn_SLwlIywBVIQcX-44">
          <mxGeometry width="221.17171717171715" height="230" as="geometry" />
        </mxCell>
        <mxCell id="NUN0Sn_SLwlIywBVIQcX-46" value="" style="edgeStyle=orthogonalEdgeStyle;rounded=0;orthogonalLoop=1;jettySize=auto;html=1;" edge="1" parent="NUN0Sn_SLwlIywBVIQcX-44" source="NUN0Sn_SLwlIywBVIQcX-47" target="NUN0Sn_SLwlIywBVIQcX-48">
          <mxGeometry relative="1" as="geometry" />
        </mxCell>
        <mxCell id="NUN0Sn_SLwlIywBVIQcX-47" value="Linear" style="rounded=1;whiteSpace=wrap;html=1;" vertex="1" parent="NUN0Sn_SLwlIywBVIQcX-44">
          <mxGeometry x="52.888888888888886" y="40" width="115.39393939393938" height="60" as="geometry" />
        </mxCell>
        <mxCell id="NUN0Sn_SLwlIywBVIQcX-48" value="MoEGateRouter" style="whiteSpace=wrap;html=1;rounded=1;" vertex="1" parent="NUN0Sn_SLwlIywBVIQcX-44">
          <mxGeometry x="52.888888888888886" y="140" width="115.39393939393938" height="60" as="geometry" />
        </mxCell>
        <mxCell id="NUN0Sn_SLwlIywBVIQcX-49" value="" style="endArrow=classic;html=1;rounded=0;exitX=0.5;exitY=1;exitDx=0;exitDy=0;" edge="1" parent="NUN0Sn_SLwlIywBVIQcX-44" source="NUN0Sn_SLwlIywBVIQcX-48">
          <mxGeometry width="50" height="50" relative="1" as="geometry">
            <mxPoint x="125.01010101010098" y="430" as="sourcePoint" />
            <mxPoint x="110.58585858585857" y="230" as="targetPoint" />
          </mxGeometry>
        </mxCell>
        <mxCell id="NUN0Sn_SLwlIywBVIQcX-50" value="" style="endArrow=classic;html=1;rounded=0;entryX=0.5;entryY=0;entryDx=0;entryDy=0;" edge="1" parent="NUN0Sn_SLwlIywBVIQcX-44" target="NUN0Sn_SLwlIywBVIQcX-47">
          <mxGeometry width="50" height="50" relative="1" as="geometry">
            <mxPoint x="110.58585858585857" as="sourcePoint" />
            <mxPoint x="109.62424242424241" y="30" as="targetPoint" />
          </mxGeometry>
        </mxCell>
        <mxCell id="NUN0Sn_SLwlIywBVIQcX-54" value="" style="shape=curlyBracket;whiteSpace=wrap;html=1;rounded=1;flipH=1;labelPosition=right;verticalLabelPosition=middle;align=left;verticalAlign=middle;" vertex="1" parent="NUN0Sn_SLwlIywBVIQcX-55">
          <mxGeometry x="170" y="5" width="170" height="220" as="geometry" />
        </mxCell>
        <mxCell id="NUN0Sn_SLwlIywBVIQcX-60" value="" style="shape=curlyBracket;whiteSpace=wrap;html=1;rounded=1;flipH=1;labelPosition=right;verticalLabelPosition=middle;align=left;verticalAlign=middle;" vertex="1" parent="1">
          <mxGeometry x="-1670" y="749.97" width="130" height="220" as="geometry" />
        </mxCell>
        <mxCell id="NUN0Sn_SLwlIywBVIQcX-40" style="edgeStyle=orthogonalEdgeStyle;rounded=0;orthogonalLoop=1;jettySize=auto;html=1;exitX=0.5;exitY=1;exitDx=0;exitDy=0;" edge="1" parent="1" source="NUN0Sn_SLwlIywBVIQcX-41">
          <mxGeometry relative="1" as="geometry">
            <mxPoint x="-1929" y="1149.97" as="targetPoint" />
            <Array as="points">
              <mxPoint x="-1750" y="889.97" />
              <mxPoint x="-1750" y="1039.97" />
              <mxPoint x="-1929" y="1039.97" />
              <mxPoint x="-1929" y="1149.97" />
            </Array>
            <mxPoint x="-1750.0000000000005" y="919.97" as="sourcePoint" />
          </mxGeometry>
        </mxCell>
        <mxCell id="NUN0Sn_SLwlIywBVIQcX-61" value="" style="endArrow=classic;html=1;rounded=0;" edge="1" parent="1">
          <mxGeometry width="50" height="50" relative="1" as="geometry">
            <mxPoint x="-1035" y="640" as="sourcePoint" />
            <mxPoint x="-1020" y="870" as="targetPoint" />
            <Array as="points">
              <mxPoint x="-840" y="640" />
              <mxPoint x="-840" y="870" />
            </Array>
          </mxGeometry>
        </mxCell>
        <mxCell id="NUN0Sn_SLwlIywBVIQcX-62" value="PatchMerger" style="rounded=1;whiteSpace=wrap;html=1;" vertex="1" parent="1">
          <mxGeometry x="-1205" y="910" width="340" height="60" as="geometry" />
        </mxCell>
        <mxCell id="NUN0Sn_SLwlIywBVIQcX-65" value="" style="edgeStyle=orthogonalEdgeStyle;rounded=0;orthogonalLoop=1;jettySize=auto;html=1;" edge="1" parent="1" source="NUN0Sn_SLwlIywBVIQcX-64" target="NUN0Sn_SLwlIywBVIQcX-62">
          <mxGeometry relative="1" as="geometry" />
        </mxCell>
        <mxCell id="NUN0Sn_SLwlIywBVIQcX-64" value="" style="verticalLabelPosition=bottom;verticalAlign=top;html=1;shape=mxgraph.flowchart.summing_function;" vertex="1" parent="1">
          <mxGeometry x="-1047.5" y="860" width="25" height="25" as="geometry" />
        </mxCell>
        <mxCell id="NUN0Sn_SLwlIywBVIQcX-68" value="Qwen2VLVisionBlock" style="text;html=1;align=center;verticalAlign=middle;resizable=0;points=[];autosize=1;strokeColor=none;fillColor=none;rotation=90;" vertex="1" parent="1">
          <mxGeometry x="-845" y="680" width="140" height="30" as="geometry" />
        </mxCell>
        <mxCell id="NUN0Sn_SLwlIywBVIQcX-72" value="Qwen2VLModel" style="text;html=1;align=center;verticalAlign=middle;resizable=0;points=[];autosize=1;strokeColor=none;fillColor=none;rotation=-90;" vertex="1" parent="1">
          <mxGeometry x="-300" y="615" width="110" height="30" as="geometry" />
        </mxCell>
        <mxCell id="NUN0Sn_SLwlIywBVIQcX-74" value="Qwen2VisionTransformerPretrainedModel" style="text;html=1;align=center;verticalAlign=middle;resizable=0;points=[];autosize=1;strokeColor=none;fillColor=none;rotation=90;" vertex="1" parent="1">
          <mxGeometry x="-820" y="635" width="250" height="30" as="geometry" />
        </mxCell>
      </root>
    </mxGraphModel>
  </diagram>
</mxfile>
